<?xml version="1.0" encoding="UTF-8"?>
<svg width="384px" height="82px" viewBox="0 0 384 82" version="1.1" xmlns="http://www.w3.org/2000/svg" xmlns:xlink="http://www.w3.org/1999/xlink">
    <!-- Generator: Sketch 48.2 (47327) - http://www.bohemiancoding.com/sketch -->
    <title>certapro_logo</title>
    <desc>Created with Sketch.</desc>
    <defs></defs>
    <g id="Page-1" stroke="none" stroke-width="1" fill="none" fill-rule="evenodd">
        <g id="certapro_logo" fill-rule="nonzero">
            <path d="M337.036,49.975 C338.153,51.751 336.618,58.901 337.036,60.52 C337.454,62.134 341.433,61.794 343.625,61.477 C345.818,61.156 359.12,58.243 365.069,61.477 C366.42,62.21 366.603,64.255 365.309,65.312 C357.42,71.718 340.748,64.651 336.555,66.988 C332.364,69.324 335.158,83.601 324.815,80.646 L330.328,49.017 C332.244,48.778 335.918,48.2 337.036,49.975" id="Shape" fill="#000000"></path>
            <path d="M32.372,14.39 C31.165,13.013 30.112,12.229 28.048,12.229 C22.84,12.229 20.654,17.976 20.008,22.055 C19.323,26.376 19.73,31.876 24.739,31.876 C26.999,31.876 28.564,30.99 30.419,29.518 L28.188,39.881 C26.033,40.767 24.146,41.208 21.935,41.208 C13.733,41.208 7.746,34.971 9.751,22.296 C12.381,5.695 24.222,2.897 29.084,2.897 C30.853,2.897 32.532,3.143 34.053,3.779 L32.372,14.39 Z" id="Shape" fill="#000000"></path>
            <path d="M54.815,31.779 C52.785,37.771 47.687,41.11 41.891,41.11 C33.885,41.11 30.761,35.708 31.967,28.092 C33.142,20.676 38.458,14.092 46.415,14.092 C50.394,14.092 53.028,15.767 54.489,18.318 C56.458,21.708 56.147,25.542 55.5,29.618 L41.354,29.618 C41.112,31.14 40.969,33.598 42.983,33.598 C44.064,33.598 45.023,32.81 45.383,31.78 L54.815,31.779 Z M46.649,24.411 C46.825,22.988 46.58,21.119 44.86,21.119 C43.24,21.119 42.339,23.084 42.178,24.411 L46.649,24.411 Z" id="Shape" fill="#000000"></path>
            <path d="M73.986,24.852 C73.172,24.41 72.119,23.918 71.432,23.918 C67.847,23.918 66.859,27.359 66.432,30.059 L64.768,40.571 L55.14,40.571 L59.248,14.633 L68.924,14.633 L67.598,19.597 L67.681,19.694 C69.267,16.503 72.127,13.948 75.691,14.091 L73.986,24.852 Z" id="Shape" fill="#000000"></path>
            <polygon id="Shape" fill="#000000" points="75.468 40.572 78.353 22.347 75.602 22.347 76.823 14.635 79.574 14.635 80.78 7.021 90.407 7.021 89.202 14.635 92.395 14.635 91.172 22.347 87.98 22.347 85.095 40.572"></polygon>
            <path d="M112.594,40.572 L102.967,40.572 L104.085,36.297 L104.003,36.2 C102.338,38.949 99.737,41.111 96.594,41.111 C89.914,41.111 90.013,32.42 90.814,27.36 C91.623,22.251 94.437,14.093 101.068,14.093 C104.163,14.093 105.752,16.157 106.576,18.712 L106.689,18.614 L106.927,14.635 L116.701,14.635 L112.594,40.572 Z M104.22,30.796 C104.724,29.47 104.958,27.995 105.074,27.258 C105.183,26.572 105.435,25.292 105.375,24.114 C105.309,22.987 104.973,22.004 103.843,22.004 C102.664,22.004 101.937,23.183 101.417,24.608 C100.954,25.984 100.696,27.607 100.564,28.442 C100.447,29.174 100.311,30.353 100.393,31.386 C100.483,32.369 100.849,33.154 101.782,33.154 C103.012,33.152 103.771,32.072 104.22,30.796 Z" id="Shape" fill="#000000"></path>
            <path d="M115.238,40.572 L121.102,3.534 L130.239,3.534 C138.984,3.534 145.261,6.385 143.721,16.11 C142.196,25.737 135.835,28.686 127.179,28.441 L125.259,40.572 L115.238,40.572 Z M130.6,11.491 L129.855,11.541 L128.501,20.088 C131.229,20.236 133.19,18.711 133.626,15.962 C133.999,13.605 133.054,11.491 130.6,11.491 Z" id="Shape" fill="#000000"></path>
            <path d="M159.725,24.852 C158.91,24.41 157.858,23.918 157.17,23.918 C153.585,23.918 152.597,27.359 152.17,30.059 L150.507,40.571 L140.879,40.571 L144.986,14.633 L154.663,14.633 L153.337,19.597 L153.42,19.694 C155.005,16.503 157.865,13.948 161.429,14.091 L159.725,24.852 Z" id="Shape" fill="#000000"></path>
            <path d="M184.087,27.605 C182.935,34.872 178.166,41.11 169.862,41.11 C161.562,41.11 158.767,34.872 159.917,27.605 C161.069,20.334 165.838,14.092 174.141,14.092 C182.443,14.094 185.237,20.334 184.087,27.605 M169.35,27.605 C168.93,30.257 168.698,33.889 171.008,33.889 C173.318,33.889 174.234,30.257 174.655,27.605 C175.075,24.952 175.309,21.316 172.999,21.316 C170.688,21.317 169.771,24.953 169.35,27.605" id="Shape" fill="#000000"></path>
            <path d="M196.062,40.572 L201.925,3.534 L211.064,3.534 C219.804,3.534 226.085,6.385 224.544,16.11 C223.019,25.737 216.655,28.686 208.002,28.441 L206.081,40.572 L196.062,40.572 Z M211.423,11.491 L210.68,11.541 L209.326,20.088 C212.052,20.236 214.014,18.711 214.448,15.962 C214.82,13.605 213.881,11.491 211.423,11.491 Z" id="Shape" fill="#000000"></path>
            <path d="M244.443,40.572 L234.814,40.572 L235.933,36.297 L235.851,36.2 C234.187,38.949 231.584,41.111 228.441,41.111 C221.763,41.111 221.863,32.42 222.664,27.36 C223.475,22.251 226.286,14.093 232.918,14.093 C236.012,14.093 237.602,16.157 238.425,18.712 L238.541,18.614 L238.775,14.635 L248.55,14.635 L244.443,40.572 Z M236.068,30.796 C236.572,29.47 236.806,27.995 236.922,27.258 C237.032,26.572 237.281,25.292 237.224,24.114 C237.158,22.987 236.824,22.004 235.693,22.004 C234.513,22.004 233.786,23.183 233.265,24.608 C232.804,25.984 232.546,27.607 232.413,28.442 C232.297,29.174 232.159,30.353 232.239,31.386 C232.331,32.369 232.696,33.154 233.632,33.154 C234.861,33.152 235.62,32.072 236.068,30.796 Z" id="Shape" fill="#000000"></path>
            <path d="M246.941,40.572 L251.047,14.634 L260.674,14.634 L256.57,40.572 L246.941,40.572 Z M251.555,6.482 C252.038,3.436 254.948,0.88 257.993,0.88 C261.087,0.88 263.308,3.287 262.812,6.432 C262.32,9.528 259.452,12.13 256.308,12.13 C253.214,12.131 251.057,9.626 251.555,6.482 Z" id="Shape" fill="#000000"></path>
            <path d="M271.791,19.449 L271.873,19.546 C273.249,16.746 276.176,14.092 279.369,14.092 C284.918,14.092 285.548,18.809 284.808,23.479 L282.1,40.571 L272.473,40.571 L274.549,27.456 C274.901,25.245 275,23.672 273.379,23.672 C271.512,23.672 271.085,25.44 270.665,28.092 L268.689,40.571 L259.06,40.571 L263.169,14.633 L272.797,14.633 L271.791,19.449 Z" id="Shape" fill="#000000"></path>
            <polygon id="Shape" fill="#000000" points="286.814 40.572 289.7 22.347 286.948 22.347 288.17 14.635 290.921 14.635 292.127 7.021 301.755 7.021 300.549 14.635 303.74 14.635 302.522 22.347 299.329 22.347 296.441 40.572"></polygon>
            <path d="M324.893,31.779 C322.863,37.771 317.766,41.11 311.968,41.11 C303.962,41.11 300.84,35.708 302.044,28.092 C303.219,20.676 308.535,14.092 316.493,14.092 C320.471,14.092 323.103,15.767 324.567,18.318 C326.535,21.708 326.221,25.542 325.578,29.618 L311.432,29.618 C311.192,31.14 311.046,33.598 313.06,33.598 C314.142,33.598 315.101,32.81 315.46,31.78 L324.893,31.779 Z M316.726,24.411 C316.903,22.988 316.66,21.119 314.94,21.119 C313.317,21.119 312.417,23.084 312.255,24.411 L316.726,24.411 Z" id="Shape" fill="#000000"></path>
            <path d="M344.062,24.852 C343.25,24.41 342.196,23.918 341.508,23.918 C337.922,23.918 336.937,27.359 336.509,30.059 L334.842,40.571 L325.215,40.571 L329.322,14.633 L339,14.633 L337.674,19.597 L337.755,19.694 C339.341,16.503 342.202,13.948 345.765,14.091 L344.062,24.852 Z" id="Shape" fill="#000000"></path>
            <path d="M347.219,31.237 C348.155,32.465 349.835,33.94 351.604,33.94 C352.441,33.94 353.536,33.545 353.681,32.614 C353.828,31.676 353.079,31.139 351.501,30.551 C347.931,29.225 345.246,27.258 345.945,22.839 C346.792,17.484 351.7,14.092 357.743,14.092 C360.346,14.092 363.259,14.932 365.317,16.206 L360.915,23.231 C359.947,22.198 358.871,20.92 357.252,20.92 C356.565,20.92 355.758,21.361 355.625,22.196 C355.416,23.522 357.175,24.213 358.142,24.602 C361.421,25.929 363.924,27.796 363.256,32.021 C362.329,37.865 356.806,41.106 351.452,41.106 C347.915,41.106 345.327,40.076 342.544,38.407 L347.219,31.237 Z" id="Shape" fill="#000000"></path>
            <polygon id="Shape" fill="#D2232A" points="290.532 81.003 296.122 48.778 5.891 48.778 0.299 81.003"></polygon>
            <polygon id="Shape" fill="#D2232A" points="320.274 81.003 325.865 48.778 302.34 48.778 296.748 81.003"></polygon>
            <polygon id="Shape" fill="#FFFFFF" points="48.781 53.569 51.178 61.524 59.679 62.152 52.527 67.696 53.689 76.037 46.871 71.509 39.088 76.037 42.027 67.696 36.055 62.152 44.69 61.524"></polygon>
            <polygon id="Shape" fill="#FFFFFF" points="99.613 53.569 102.009 61.524 110.511 62.152 103.358 67.696 104.521 76.037 97.703 71.509 89.92 76.037 92.859 67.696 86.886 62.152 95.521 61.524"></polygon>
            <polygon id="Shape" fill="#FFFFFF" points="152.052 53.569 154.449 61.524 162.951 62.152 155.797 67.696 156.96 76.037 150.142 71.509 142.359 76.037 145.297 67.696 139.325 62.152 147.96 61.524"></polygon>
            <polygon id="Shape" fill="#FFFFFF" points="204.167 53.569 206.566 61.524 215.066 62.152 207.913 67.696 209.076 76.037 202.257 71.509 194.475 76.037 197.414 67.696 191.441 62.152 200.075 61.524"></polygon>
            <polygon id="Shape" fill="#FFFFFF" points="257.033 53.569 259.432 61.524 267.932 62.152 260.777 67.696 261.941 76.037 255.122 71.509 247.34 76.037 250.279 67.696 244.307 62.152 252.941 61.524"></polygon>
            <path d="M367.736,21.908 C367.736,17.525 371.312,13.945 375.739,13.945 C380.141,13.945 383.701,17.525 383.701,21.908 C383.701,26.334 380.141,29.916 375.739,29.916 C371.312,29.916 367.736,26.334 367.736,21.908 Z M382.438,21.908 C382.438,18.032 379.616,14.998 375.74,14.998 C371.843,14.998 368.999,18.032 368.999,21.908 C368.999,25.828 371.843,28.863 375.74,28.863 C379.615,28.863 382.438,25.829 382.438,21.908 Z M379.722,26.375 L378.413,26.375 L375.867,22.267 L373.861,22.267 L373.861,26.375 L372.766,26.375 L372.766,17.464 L376.662,17.464 C379.025,17.464 379.823,18.35 379.823,19.824 C379.823,21.571 378.599,22.225 377.02,22.266 L379.722,26.375 Z M375.528,21.404 C376.792,21.404 378.646,21.614 378.646,19.8 C378.646,18.41 377.506,18.242 376.414,18.242 L373.861,18.242 L373.861,21.403 L375.528,21.403 L375.528,21.404 Z" id="Shape" fill="#000000"></path>
        </g>
    </g>
</svg>