<svg enable-background="new 0 0 778.1 164.1" viewBox="0 0 778.1 164.1" xmlns="http://www.w3.org/2000/svg" xmlns:xlink="http://www.w3.org/1999/xlink"><linearGradient id="a" gradientUnits="userSpaceOnUse" x1="9.5277" x2="147.872" y1="82.8478" y2="82.8478"><stop offset=".09189189" stop-color="#1b5e45"/><stop offset=".2189" stop-color="#fff"/><stop offset=".3595" stop-color="#1b5e45"/></linearGradient><linearGradient id="b"><stop offset=".3784" stop-color="#fff" stop-opacity="0"/><stop offset="1" stop-color="#fff" stop-opacity=".6"/></linearGradient><linearGradient id="c" gradientTransform="matrix(-1 0 0 1 516.7908 0)" gradientUnits="userSpaceOnUse" x1="427.635" x2="427.635" xlink:href="#b" y1="79.9459" y2="12.1875"/><linearGradient id="d" gradientUnits="userSpaceOnUse" x1="59.4041" x2="197.7484" y1="82.8478" y2="82.8478"><stop offset=".6649" stop-color="#c2db77"/><stop offset=".7811" stop-color="#fff"/><stop offset=".9081" stop-color="#c2db77"/></linearGradient><linearGradient id="e" gradientUnits="userSpaceOnUse" x1="118.5261" x2="118.5261" xlink:href="#b" y1="79.9459" y2="12.1875"/><linearGradient id="f"><stop offset=".4825" stop-color="#c1db77"/><stop offset=".5397" stop-color="#add14d"/></linearGradient><linearGradient id="g" gradientUnits="userSpaceOnUse" x1="207.8486" x2="207.8486" xlink:href="#f" y1="36.2159" y2="83.4839"/><linearGradient id="h" gradientUnits="userSpaceOnUse" x1="261.3403" x2="261.3403" xlink:href="#f" y1="36.2159" y2="83.4839"/><linearGradient id="i" gradientUnits="userSpaceOnUse" x1="300.5188" x2="300.5188" xlink:href="#f" y1="36.2159" y2="83.4839"/><linearGradient id="j" gradientUnits="userSpaceOnUse" x1="350.9213" x2="350.9213" xlink:href="#f" y1="36.2159" y2="83.4839"/><linearGradient id="k" gradientUnits="userSpaceOnUse" x1="408.7774" x2="408.7774" xlink:href="#f" y1="36.2159" y2="83.4839"/><linearGradient id="l" gradientUnits="userSpaceOnUse" x1="476.0009" x2="476.0009" xlink:href="#f" y1="36.2159" y2="83.4839"/><linearGradient id="m" gradientUnits="userSpaceOnUse" x1="541.679" x2="541.679" xlink:href="#f" y1="36.2159" y2="83.4839"/><linearGradient id="n" gradientUnits="userSpaceOnUse" x1="607.357" x2="607.357" xlink:href="#f" y1="36.2159" y2="83.4839"/><linearGradient id="o" gradientUnits="userSpaceOnUse" x1="673.5295" x2="673.5295" xlink:href="#f" y1="36.2159" y2="83.4839"/><linearGradient id="p" gradientUnits="userSpaceOnUse" x1="737.9713" x2="737.9713" xlink:href="#f" y1="36.2159" y2="83.4839"/><path d="m147.9 24.9-37.1-15.8-101.3 112.5v35h67.4v-37.4l-13.6-.1z" fill="url(#a)"/><path d="m124.1 17.9-12.4-5.7-60.9 67.7 76.7-36z" fill="url(#c)"/><path d="m63.2 119-34.8 37.5h21.5z" fill="#0c4c2f"/><path d="m59.4 24.9 37.1-15.8 101.2 112.5v35h-67.4v-37.4l13.6-.1z" fill="url(#d)"/><path d="m144.1 119 34.8 37.5h-21.5z" fill="#96b53c"/><path d="m83.5 17.9 12.4-5.7 61 67.7-76.8-36z" fill="url(#e)"/><path d="m167 35.3h13.4l9.5 32.9h.1l11.4-32.9h12.7l11.4 32.9h.1l9.5-32.9h13.4l-14.5 44.8h-15.8l-10.5-29.6h-.1l-10.5 29.6h-15.8z" fill="url(#g)"/><path d="m254.5 35.3h13.7v44.8h-13.7z" fill="url(#h)"/><path d="m278.2 35.3h13.8v33.3h30.9v11.5h-44.6v-44.8z" fill="url(#i)"/><path d="m328.6 35.3h13.7v33.3h30.9v11.5h-44.6z" fill="url(#j)"/><path d="m378 51.1c0-13.1 7.4-16.2 19.7-16.2h22c12.4 0 19.7 3.1 19.7 16.2v13.4c0 13.1-7.4 16.2-19.7 16.2h-22c-12.4 0-19.7-3.1-19.7-16.2zm14.1 9c0 6.5 1.4 9 7.9 9h17.6c6.5 0 7.9-2.5 7.9-9v-4.8c0-5.6-1.4-9-8.6-9h-16.1c-7.2 0-8.6 3.4-8.6 9v4.8z" fill="url(#k)"/><path d="m447.8 35.3h13.7v25.9c0 5.7 2 7.9 7.7 7.9h13.6c5.6 0 7.7-2.2 7.7-7.9v-25.9h13.7v28.8c0 11.1-5.8 16.5-18.4 16.5h-19.7c-12.6 0-18.4-5.3-18.4-16.5v-28.8z" fill="url(#l)"/><path d="m512.5 51.1c0-13.1 7.4-16.2 19.7-16.2h20.7c15.6 0 17.8 5.6 17.8 14.3v1.4h-13.5c0-4.5-2.5-5-6.9-5h-14.9c-6.9 0-8.7 1.7-8.7 9.3v5.6c0 7.7 1.8 9.3 8.7 9.3h14.6c3.6 0 7.2-.6 7.2-4.9v-1.3h-17.1v-9.3h30.8v12.7c0 12.9-6.7 13.5-22.1 13.5h-16.5c-12.4 0-19.7-3.1-19.7-16.2v-13.2z" fill="url(#m)"/><path d="m579.2 35.3h13.7v16h28.9v-16h13.7v44.8h-13.7v-16.9h-28.9v16.9h-13.7z" fill="url(#n)"/><path d="m644.8 35.3h39.5c10.9 0 16.3 3 16.3 11.8 0 7.7-2.8 9.2-6.6 10.3v.2c6 .7 8.2 4 8.2 10.7 0 9.8-5.8 11.9-13.7 11.9h-43.7zm13.8 17.8h24.3c2.5 0 4-.9 4-3.5s-1.5-3.5-4-3.5h-24.3zm0 16.3h24.6c3 0 4.9-.7 4.9-3.3 0-3-2-3.7-4.9-3.7h-24.6z" fill="url(#o)"/><path d="m731.1 64.5-24.8-29.2h16.6l15.1 18.4 15.1-18.3h16.6l-24.8 29.2v15.6h-13.7v-15.7z" fill="url(#p)"/><path d="m211.3 115.9c0-12.1 8.5-13.5 16.7-13.5h9.4c10.5 0 14.6 4.3 14.6 11.3v.9h-5.2v-.8c0-5.6-3.7-6.9-9.3-6.9h-10.3c-5.3 0-10.3.8-10.3 9.1v7c0 7.5 4.6 9.2 11.4 9.2h9.5c5.2 0 9.6-1.6 9.6-7v-1.1h5.2v1c0 8.4-4.2 11.7-14.7 11.7h-12.7c-5 0-14-1.4-14-13.5v-7.4z"/><path d="m260.1 115.9c0-11 7.8-13.5 18.4-13.5h8c10.7 0 18.4 2.6 18.4 13.5v7.3c0 11-7.8 13.5-18.4 13.5h-8c-10.7 0-18.4-2.6-18.4-13.5zm39.4.4c0-7.8-4.6-9.3-11.1-9.3h-11.4c-6.5 0-11.1 1.5-11.1 9.3v6.7c0 7.8 4.6 9.3 11.1 9.3h11.4c6.5 0 11.1-1.5 11.1-9.3z"/><path d="m314.6 102.9h5.2v3.9h.1c2.4-3.5 5.6-4.4 11.2-4.4h9.1c5.1 0 9 2 10.8 6.1 2.1-4.5 6.6-6.1 12.4-6.1h6.8c9 0 14.6 3.9 14.6 11.5v22.4h-5.6v-21.7c0-3.9-1.7-7.6-10.7-7.6h-4c-10.1 0-11.5 4.2-11.5 9.6v19.8h-5.6v-20.2c0-6.5-2-9.1-11-9.1h-5.6c-7.2 0-10.5 3-10.5 8.4v20.9h-5.6v-33.5z"/><path d="m395.3 102.9h5.2v3.9h.1c2.4-3.5 5.6-4.4 11.2-4.4h9.1c5.1 0 9 2 10.8 6.1 2.1-4.5 6.6-6.1 12.4-6.1h6.8c9 0 14.6 3.9 14.6 11.5v22.4h-5.6v-21.7c0-3.9-1.7-7.6-10.7-7.6h-4c-10.1 0-11.5 4.2-11.5 9.6v19.8h-5.6v-20.2c0-6.5-2-9.1-11-9.1h-5.6c-7.2 0-10.5 3-10.5 8.4v20.9h-5.6v-33.5z"/><path d="m474.6 115.9c0-12.1 8.4-13.5 16.4-13.5h9c10.1 0 17.3 2.6 17.3 14.5v3.7h-37.1v2.1c0 7.6 3.7 9.6 13.5 9.6h7.7c7.1 0 9.9-.9 10.3-6h5.6v.7c0 7.7-6.3 9.9-16.8 9.9h-10.2c-7.3 0-15.7-1.4-15.7-13.7zm37.1-2.1c0-3.4-2.6-6.8-11.7-6.8h-8.2c-8.9 0-11 1.4-11.5 9h31.5v-2.2z"/><path d="m526.6 102.9h5.2v4.8h.1c2.1-4.3 6.3-5.4 10.2-5.4h5.3c10.5 0 14 3.4 14 11.6v4h-5.2v-1.4c0-8.2-1.7-9.6-11.7-9.6h-3.5c-6 0-8.8 3.8-8.8 8.1v21.2h-5.6z"/><path d="m566.6 115.9c0-12.1 8.5-13.5 16.7-13.5h9.4c10.5 0 14.6 4.3 14.6 11.3v.9h-5.2v-.8c0-5.6-3.7-6.9-9.3-6.9h-10.3c-5.3 0-10.3.8-10.3 9.1v7c0 7.5 4.6 9.2 11.4 9.2h9.5c5.2 0 9.6-1.6 9.6-7v-1.1h5.2v1c0 8.4-4.2 11.7-14.7 11.7h-12.7c-5 0-14-1.4-14-13.5v-7.4z"/><path d="m617.4 88.9h5.6v6.1h-5.6zm0 14h5.6v33.4h-5.6z"/><path d="m668.9 132.9h-.1c-1.5 3-3.3 3.9-11.9 3.9h-13.5c-8.5 0-10.7-3.7-10.7-10v-2.2c0-7.6 5.4-8.5 15.2-8.5h9c7.3 0 9.9.8 11.9 4h.1v-6.3c0-6-3.8-6.8-12.4-6.8h-8.2c-7.1 0-8.4 1.7-8.4 4.4v1.2h-5.6v-1.6c0-6.1 3.9-8.6 13.9-8.6h8.9c10.5 0 17.5 1.6 17.5 11.5v22.4h-5.6v-3.4zm0-7.1c0-4.6-4.1-5.2-12.7-5.2h-8.6c-7.3 0-9.3 1-9.3 5.2v1c0 3.7 1.3 5.3 9 5.3h7.5c10.2 0 14.1-.7 14.1-4.9z"/><path d="m685.2 88.9h5.6v47.4h-5.6z"/></svg>